<svg width="1441" height="524" xmlns="http://www.w3.org/2000/svg" fill="none">

 <g>
  <title>Layer 1</title>
  <path id="svg_1" fill="#00a9ff" d="m758.2,341.2c11.7,0 23.1,-2.4 33.9,-7.2c9.87,-4.231 18.68,-10.317 26.18,-17.761c0.79,-0.784 0.76,-2.062 -0.05,-2.826l-28.87,-27.23c-0.8,-0.762 -2.08,-0.716 -2.87,0.061c-7.63,7.47 -17.56,11.456 -28.29,11.456c-13.38,0 -25.27,-6.464 -32.73,-16.223c-0.96,-1.251 -0.02,-2.977 1.56,-2.977l113.47,0c1.1,0 2,-0.896 2,-2l0,-19.9c0,-22.5 -8.7,-43.8 -24.6,-59.7c-15.9,-15.9 -37.2,-24.9 -59.7,-24.9c-22.8,0 -43.8,9 -60,24.9c-15.9,15.9 -10.12,36.255 -10.12,58.755c0,22.5 -5.02,51.348 4.02,74.002c6.1,15.283 43.3,11.543 66.1,11.543zm-31.22,-106.2c-1.57,0 -2.51,-1.707 -1.58,-2.963c7.46,-10.035 19.38,-16.537 32.8,-16.537c13.13,0 25.02,6.489 32.7,16.507c0.96,1.255 0.02,2.993 -1.56,2.993l-62.36,0z"/>
  <path id="svg_2" fill="#0078B7" d="m629.262,345.919l0,-72.081c0,-28.129 25.097,-53.401 56.307,-53.401l0,-19.852l0,-21.976c-14.157,0 -27.993,2.637 -40.863,7.619c-12.226,4.688 -23.487,11.72 -33.14,20.511c-9.652,8.497 -17.053,18.752 -22.522,30.18c-5.47,11.72 -8.044,24.027 -8.044,36.919l0,72.081l48.262,0z"/>
  <path id="svg_3" fill="#00B4D7" d="m827.134,342.9c0,1.105 0.895,2 2,2l135.2,0c1.104,0 2,-0.895 2,-2l0,-38c0,-1.104 -0.896,-2 -2,-2l-68.247,0c-1.676,0 -2.609,-1.936 -1.564,-3.246l71.374,-89.506c0.283,-0.354 0.437,-0.794 0.437,-1.247l0,-29.1c0,-1.105 -0.896,-2 -2,-2l-130.7,0c-1.105,0 -2,0.895 -2,2l0,38c0,1.104 0.895,2 2,2l63.457,0c1.674,0 2.607,1.933 1.566,3.244l-71.089,89.509c-0.281,0.354 -0.434,0.792 -0.434,1.244l0,29.102z"/>
  <path id="svg_4" fill="#91E0EF" d="m1041.444,347c20.096,0 38.996,-7.8 53.096,-21.9c14.1,-14.1 21.9,-32.999 21.9,-53.099l0,-92.2c0,-1.105 -0.89,-2 -2,-2l-41,0c-1.1,0 -2,0.895 -2,2l0,92.2c0,16.5 -13.5,29.999 -29.996,29.999c-16.5,0 -30,-13.499 -30,-29.999l0,-92.2c0,-1.105 -0.895,-2 -2,-2l-41,0c-1.104,0 -2,0.895 -2,2l0,92.2c0,20.1 7.8,38.999 21.9,53.099c14.1,14.1 33,21.9 53.1,21.9z"/>
  <path id="svg_6" fill="#00B4D7" d="m386.54,0l-136.908,-0.00001l183.458,261.52001l136.908,0l-183.458,-261.52z"/>
  <path id="svg_7" fill="#91E0EF" d="m211.635,261.521l136.908,0l137.515,-196.0271c25.374,-36.1703 10.126,-65.49206 -34.057,-65.49206l-56.908,0l-183.458,261.51916z"/>
  <path id="svg_8" fill="#91E0EF" d="m110.28,1.27734l-78.2799,112.32066l286.9989,-0.882l78.28,-112.32053l-286.999,0.88187z"/>
  <rect id="svg_9" fill="#00B4D7" transform="matrix(1 0 -0.574291 -0.818651 183.458 522.523)" height="319.452" width="136.908"/>
  <rect id="svg_10" fill="#91E0EF" transform="matrix(-0.571492 0.820607 0.999994 -0.00341463 215.241 410.002)" height="319.452" width="136.908"/>
  <path id="svg_11" fill="#91E0EF" d="m349.365,261.002l-136.908,0l-137.5148,196.028c-25.3738,36.17 -10.1261,65.492 34.0568,65.492l56.908,0l183.458,-261.52z"/>
  <rect id="svg_12" fill="#0078B7" transform="matrix(-1 -8.74228e-08 -0.574291 0.818651 320.366 0)" height="319.452" width="136.908"/>
  <path id="svg_13" fill="#0078B7" d="m249.999,523.002l136.908,0l183.458,-261.52l-136.908,0l-183.458,261.52z"/>
  <path transform="rotate(0.0133261 1327.73 258.35)" id="svg_16" fill="#0078b7" d="m1258.134,339.9c0,1.105 0.895,2 2,2l135.2,0c1.104,0 2,-0.895 2,-2l0,-38c0,-1.104 -0.896,-2 -2,-2l-68.247,0c-1.676,0 -2.609,-1.936 -1.564,-3.246l71.374,-89.506c0.283,-0.354 0.437,-0.794 0.437,-1.247l0,-29.1c0,-1.105 -0.896,-2 -2,-2l-130.7,0c-1.105,0 -2,0.895 -2,2l0,38c0,1.104 0.895,2 2,2l63.457,0c1.674,0 2.607,1.933 1.566,3.244l-71.089,89.509c-0.281,0.354 -0.434,0.792 -0.434,1.244l0,29.102z"/>
  <path id="svg_17" fill="#00a9ff" d="m1187.2,338.2c11.7,0 23.1,-2.4 33.9,-7.2c9.87,-4.231 18.68,-10.317 26.18,-17.761c0.79,-0.784 0.76,-2.062 -0.05,-2.826l-28.87,-27.23c-0.8,-0.762 -2.08,-0.716 -2.87,0.061c-7.63,7.47 -17.56,11.456 -28.29,11.456c-13.38,0 -25.27,-6.464 -32.73,-16.223c-0.96,-1.251 -0.02,-2.977 1.56,-2.977l113.47,0c1.1,0 2,-0.896 2,-2l0,-19.9c0,-22.5 -8.7,-43.8 -24.6,-59.7c-15.9,-15.9 -37.2,-24.9 -59.7,-24.9c-22.8,0 -43.8,9 -60,24.9c-15.9,15.9 -10.12,36.255 -10.12,58.755c0,22.5 -5.02,51.348 4.02,74.002c6.1,15.283 43.3,11.543 66.1,11.543zm-31.22,-106.2c-1.57,0 -2.51,-1.707 -1.58,-2.963c7.46,-10.035 19.38,-16.537 32.8,-16.537c13.13,0 25.02,6.489 32.7,16.507c0.96,1.255 0.02,2.993 -1.56,2.993l-62.36,0z"/>
 </g>
</svg>